<?xml version="1.0" encoding="UTF-8"?>
<svg width="30px" height="30px" viewBox="0 0 30 30" version="1.1" xmlns="http://www.w3.org/2000/svg" xmlns:xlink="http://www.w3.org/1999/xlink">
    <!-- Generator: Sketch 51.3 (57544) - http://www.bohemiancoding.com/sketch -->
    <title>behanceSocial</title>
    <desc>Created with Sketch.</desc>
    <defs></defs>
    <g id="Welcome" stroke="none" stroke-width="1" fill="none" fill-rule="evenodd">
        <g id="Desktop" transform="translate(-581.000000, -785.000000)" stroke="#394249" stroke-width="2">
            <g id="behanceSocial" transform="translate(582.000000, 786.000000)">
                <rect id="Rectangle-4" x="0" y="0" width="28" height="28" rx="7"></rect>
                <g id="Group-3" transform="translate(6.000000, 9.000000)">
                    <g id="Group-9">
                        <path d="M4.1424,4.58973846 L0.077623301,4.58973846 L0.077623301,0.0769692308 L4.1424,0.0769692308 C5.40080777,0.0769692308 6.42076893,1.08712308 6.42076893,2.33327692 C6.42076893,3.57958462 5.40080777,4.58973846 4.1424,4.58973846 Z" id="Stroke-1"></path>
                        <path d="M4.31260583,9.8788 L0.0777320388,9.8788 L0.0777320388,4.68556923 C0.0777320388,4.63264615 0.121071845,4.58972308 0.174353398,4.58972308 L4.31260583,4.58972308 C5.7872466,4.58972308 6.98274175,5.77372308 6.98274175,7.23433846 C6.98274175,8.6948 5.7872466,9.8788 4.31260583,9.8788 Z" id="Stroke-3"></path>
                        <path d="M15.8123029,8.22435385 C15.8123029,8.59943077 14.8157981,10.0000462 12.7637592,10.0000462 C10.8641087,10.0000462 9.55335146,8.47481538 9.55335146,6.59312308 C9.55335146,4.71173846 10.8641087,3.18650769 12.7637592,3.18650769 C14.6634097,3.18650769 15.974167,4.71173846 15.974167,6.59312308 L9.55335146,6.59312308" id="Stroke-5"></path>
                        <path d="M10.0193709,0.307661538 L15.7152155,0.307661538" id="Stroke-7"></path>
                    </g>
                </g>
            </g>
        </g>
    </g>
</svg>