<?xml version="1.0" encoding="UTF-8"?>
<svg width="30px" height="30px" viewBox="0 0 30 30" version="1.1" xmlns="http://www.w3.org/2000/svg" xmlns:xlink="http://www.w3.org/1999/xlink">
    <!-- Generator: Sketch 51.3 (57544) - http://www.bohemiancoding.com/sketch -->
    <title>snapchatSocial</title>
    <desc>Created with Sketch.</desc>
    <defs></defs>
    <g id="Welcome" stroke="none" stroke-width="1" fill="none" fill-rule="evenodd">
        <g id="Desktop" transform="translate(-381.000000, -785.000000)" stroke="#394249" stroke-width="2">
            <g id="snapchatSocial" transform="translate(382.000000, 786.000000)">
                <rect id="Rectangle-4" x="0" y="0" width="28" height="28" rx="7"></rect>
                <path d="M14,22 C15.4344028,22 16.1685036,21.0675855 16.8688056,20.6013782 C17.5691077,20.135171 19.0065697,20.3682746 19.3198627,20.4459758 C19.6331557,20.523677 19.6515847,20.0963204 19.7437297,19.7078143 C19.8358747,19.3193083 20.0201647,19.3387336 20.6651797,19.2221818 C21.3101948,19.1056299 21.7340618,18.8142504 21.9183518,18.6199974 C22.1026418,18.4257444 22.0473548,18.2703419 20.9784728,17.9012612 C19.9095907,17.5321804 19.3567207,16.6774671 18.9881407,16.1335587 C18.6195607,15.5896502 18.3246967,14.1573962 18.3799837,13.632913 C18.4352707,13.1084299 19.0802857,13.2700059 19.6515847,13.1081543 C20.2685877,12.9333266 20.3122275,12.9155194 20.2904076,12.8895332 C20.2685877,12.8635469 19.861145,13.0169355 19.3075521,13.1833842 C18.7539593,13.3498328 18.3984127,13.3387866 18.2755281,13.2870376 C18.1526435,13.2352109 18.2509807,11.5686126 18.2509807,10.2995187 C18.2509807,7.5799764 16.3589121,6 14,6 C11.6410879,6 9.74901932,7.5799764 9.74901932,10.2995187 C9.74901932,11.5686126 9.84735646,13.2352109 9.72447189,13.2870376 C9.60158731,13.3387866 9.24332468,13.3324809 8.69244786,13.1833842 C8.14157104,13.0342874 7.73148606,12.8527545 7.70959241,12.8895332 C7.68769875,12.9263118 7.73148606,12.9333266 8.34841528,13.1081543 C8.91971429,13.2700059 9.56472931,13.1084299 9.62001631,13.632913 C9.67530331,14.1573962 9.38043931,15.5896502 9.0118593,16.1335587 C8.64327929,16.6774671 8.09040927,17.5321804 7.02152724,17.9012612 C5.95264522,18.2703419 5.89735821,18.4257444 6.08164822,18.6199974 C6.26593822,18.8142504 6.68980524,19.1056299 7.33482025,19.2221818 C7.97983527,19.3387336 8.16412527,19.3193083 8.25627028,19.7078143 C8.34841528,20.0963204 8.36684428,20.523677 8.68013729,20.4459758 C8.9934303,20.3682746 10.4308923,20.135171 11.1311944,20.6013782 C11.8314964,21.0675855 12.5655972,22 14,22 Z" id="Page-1"></path>
            </g>
        </g>
    </g>
</svg>