<?xml version="1.0" encoding="UTF-8"?>
<svg width="30px" height="30px" viewBox="0 0 30 30" version="1.1" xmlns="http://www.w3.org/2000/svg" xmlns:xlink="http://www.w3.org/1999/xlink">
    <!-- Generator: Sketch 51.3 (57544) - http://www.bohemiancoding.com/sketch -->
    <title>twitterSocial</title>
    <desc>Created with Sketch.</desc>
    <defs></defs>
    <g id="Welcome" stroke="none" stroke-width="1" fill="none" fill-rule="evenodd">
        <g id="Desktop" transform="translate(-341.000000, -785.000000)" stroke="#394249" stroke-width="2">
            <g id="twitterSocial" transform="translate(342.000000, 786.000000)">
                <rect id="Rectangle-4" x="0" y="0" width="28" height="28" rx="7"></rect>
                <path d="M22,8.36376036 C21.51327,8.98916743 20.3318536,8.88877454 19.4813381,8.88877454 C19.4463656,8.88877454 19.4128353,8.88224477 19.3782234,8.88115647 C18.8215486,8.33664603 18.0622499,8 17.2243533,8 C15.5153903,8 14.1294718,9.39410635 14.1294718,11.113613 C14.1294718,11.4030996 14.1720156,11.682066 14.2452054,11.9479728 C11.5743199,11.7099989 9.20051985,10.4011423 7.59539262,8.43096496 C7.41223794,8.86664587 7.31092601,9.34549583 7.31092601,9.84792551 C7.31092601,11.1361045 7.97756577,12.2653923 8.98095056,12.9122025 C8.30061024,12.8733866 7.67038509,12.6470212 7.14183242,12.2813539 C7.25720544,13.9732904 8.51945845,15.3449054 10.1530684,15.6169792 C9.95404992,15.6514419 9.74962334,15.6692174 9.54087027,15.6692174 C9.07108573,15.6692174 8.62365472,15.5767123 8.21191723,15.4123797 C8.72280341,16.6356236 9.87797583,17.5178684 11.2501938,17.6310511 C10.2143603,18.5593671 8.85043482,19.1249179 7.35455143,19.1249179 C6.88729068,19.1249179 6.43553317,19.0639734 6,18.9602225 C7.4508158,19.9045001 9.17852686,20.4551776 11.034951,20.4551776 C16.1625609,20.4551776 20.3188741,16.2728585 20.3188741,11.113613 C20.3188741,11.0435993 20.3131055,10.9753995 20.3109422,10.9057486 C21.1481178,10.5763579 21.8572259,9.25761361 22,8.36376036 Z" id="Page-1" stroke-linecap="round" stroke-linejoin="round"></path>
            </g>
        </g>
    </g>
</svg>