<svg width="28px" height="28px" viewBox="0 0 28 28" version="1.1" xmlns="http://www.w3.org/2000/svg" xmlns:xlink="http://www.w3.org/1999/xlink">
  <rect x="0" y="0" width="28" height="28" rx="7" />
  <path d="M10.14,13.59 L6.078,13.59 L6.08,9.08 L10.14,9.08 C11.4,9.08 12.42,10.09 12.42,11.33 C12.42,12.58 11.4,13.59 10.14,13.59 Z" />
  <path d="M10.31,18.88 L6.08,18.88 L6.078,13.69 C6.08,13.63 6.12,13.59 6.17,13.59 L10.31,13.59 C11.79,13.59 12.98,14.77 12.98,16.23 C12.98,17.69 11.79,18.88 10.31,18.88 Z" />
  <path d="M21.81,17.22 C21.81,17.6 20.82,19 18.76,19 C16.86,19 15.55,17.47 15.55,15.59 C15.55,13.71 16.86,12.19 18.76,12.19 C20.66,12.19 21.97,13.71 21.97,15.59 L15.55,15.59" />
  <path d="M16.02,9.31 L21.72,9.31" />
</svg>
