<svg width="28px" height="28px" viewBox="0 0 28 28" version="1.1" xmlns="http://www.w3.org/2000/svg" xmlns:xlink="http://www.w3.org/1999/xlink">
  <rect x="0" y="0" width="28" height="28" rx="7" />
  <path d="M21.64,13.96 C21.64,18.20 18.20,21.64 13.96,21.64 C9.71,21.64 6.27,18.20 6.27,13.96 C6.27,9.71 9.71,6.27 13.96,6.27 C18.20,6.27 21.64,9.71 21.64,13.96" />
  <path d="M10.98,6.86 C12.94,8.86 14.71,11.76 15.91,15.19 C16.6,17.15 17.02,19.1 17.21,20.92" />
  <path d="M8.81,19.74 C9.73,17.51 11.93,15.57 14.89,14.70 C17.25,14 19.64,14.12 21.6106133,14.86" />
  <path d="M19.36,8.38 C18.04,9.99 15.96,11.39 13.42,12.20 C10.89,13.01 8.40,13.09 6.40,12.56" />
</svg>
