<svg width="28px" height="28px" viewBox="0 0 28 28" version="1.1" xmlns="http://www.w3.org/2000/svg" xmlns:xlink="http://www.w3.org/1999/xlink">
  <rect x="0" y="0" width="28" height="28" rx="7" />
  <path d="M14,22 C15.43,22 16.17,21.068 16.87,20.60 C17.57,20.14 19.01,20.37 19.32,20.45 C19.63,20.52 19.65,20.10 19.74,19.71 C19.84,19.32 20.02,19.34 20.67,19.22 C21.31,19.11 21.73,18.81 21.92,18.62 C22.10,18.43 22.05,18.27 20.98,17.90 C19.91,17.53 19.36,16.68 18.99,16.13 C18.62,15.59 18.32,14.16 18.38,13.63 C18.44,13.11 19.08,13.27 19.65,13.11 C20.27,12.93 20.31,12.92 20.29,12.89 C20.27,12.86 19.86,13.02 19.31,13.18 C18.75,13.35 18.40,13.34 18.28,13.29 C18.15,13.24 18.25,11.57 18.25,10.30 C18.25,7.58 16.36,6 14,6 C11.64,6 9.75,7.58 9.75,10.30 C9.75,11.57 9.84,13.24 9.72,13.29 C9.60,13.34 9.24,13.33 8.69,13.18 C8.14,13.03 7.73,12.85 7.71,12.89 C7.69,12.95 7.73,12.93 8.35,13.11 C8.92,13.27 9.56,13.11 9.62,13.63 C9.68,14.15 9.38,15.59 9.01,16.13 C8.64,16.68 8.09,17.53 7.02,17.90 C5.95,18.27 5.90,18.43 6.08,18.62 C6.27,18.81 6.69,19.11 7.33,19.22 C7.98,19.34 8.16,19.32 8.26,19.71 C8.35,20.10 8.37,20.52 8.68,20.45 C8.99,20.37 10.43,20.14 11.13,20.60 C11.83,21.07 12.57,22 14,22 Z" />
</svg>
