<svg width="28px" height="28px" viewBox="0 0 28 28" version="1.1" xmlns="http://www.w3.org/2000/svg" xmlns:xlink="http://www.w3.org/1999/xlink">
  <rect x="0" y="0" width="28" height="28" rx="7" />
  <path d="M22,8.36 C21.51,8.99 20.33,8.89 19.48,8.89 C19.45,8.89 19.41,8.88 19.38,8.88 C18.82,8.34 18.06,8 17.22,8 C15.52,8 14.13,9.39 14.13,11.11 C14.13,11.40 14.17,11.68 14.24,11.95 C11.57,11.71 9.20,10.40 7.60,8.43 C7.41,8.87 7.31,9.35 7.31,9.85 C7.31,11.14 7.98,12.27 8.98,12.91 C8.30,12.87 7.67,12.65 7.14,12.28 C7.26,13.97 8.52,15.34 10.15,15.62 C9.95,15.65 9.75,15.67 9.54,15.67 C9.07,15.67 8.62,15.58 8.21,15.41 C8.72,16.64 9.88,17.52 11.25,17.63 C10.21,18.56 8.85,19.12 7.35,19.12 C6.89,19.12 6.44,19.06 6,18.96 C7.45,19.90 9.18,20.45 11.03,20.46 C16.16,20.46 20.32,16.27 20.32,11.11 C20.32,11.04 20.31,10.98 20.31,10.91 C21.1481178,10.58 21.86,9.26 22,8.36 Z" />
</svg>
