<?xml version="1.0" encoding="UTF-8"?>
<svg
  width="18px"
  height="13px"
  viewBox="0 0 18 13"
  version="1.1"
  xmlns="http://www.w3.org/2000/svg"
  xmlns:xlink="http://www.w3.org/1999/xlink"
>
  <g
    id="Welcome"
    stroke="none"
    stroke-width="1"
    fill="none"
    fill-rule="evenodd"
  >
    <g
      id="Desktop"
      transform="translate(-60.000000, -267.000000)"
      stroke="#394249"
    >
      <g id="Page-1" transform="translate(61.000000, 267.000000)">
        <path d="M14.1652,7.8288 C14.1652,10.0288 12.3822,11.8118 10.1822,11.8118 C7.9832,11.8118 6.2002,10.0288 6.2002,7.8288 C6.2002,5.6288 7.9832,3.8458 10.1822,3.8458 C12.3822,3.8458 14.1652,5.6288 14.1652,7.8288 L14.1652,7.8288 Z" />
        <path d="M12.0446,7.8288 C12.0446,8.8568 11.2106,9.6908 10.1826,9.6908 C9.1546,9.6908 8.3206,8.8568 8.3206,7.8288 C8.3206,6.8008 9.1546,5.9668 10.1826,5.9668 C11.2106,5.9668 12.0446,6.8008 12.0446,7.8288 L12.0446,7.8288 Z" />
        <path d="M12.8316,1.742 L12.8316,1.742 C12.8316,1.042 12.2536,0.477 11.5486,0.501 C10.7766,0.527 10.0026,0.5 9.2306,0.5 C8.5446,0.5 7.9906,1.056 7.9906,1.742 L7.9906,1.742 C7.9906,2.408 7.4506,2.948 6.7846,2.948 L1.7416,2.948 C1.0556,2.948 0.4996,3.504 0.4996,4.19 L0.4996,11.188 C0.4996,11.874 1.0556,12.43 1.7416,12.43 L15.1886,12.43 C15.8746,12.43 16.4306,11.874 16.4306,11.188 L16.4306,4.19 C16.4306,3.504 15.8746,2.948 15.1886,2.948 L14.0376,2.948 C13.3716,2.948 12.8316,2.408 12.8316,1.742 L12.8316,1.742 Z" />
        <path d="M15.0858,2.6342 L14.1048,2.6342 C13.9688,2.6342 13.8578,2.5242 13.8578,2.3882 C13.8578,2.2522 13.9688,2.1422 14.1048,2.1422 L15.0858,2.1422 C15.2218,2.1422 15.3318,2.2522 15.3318,2.3882 C15.3318,2.5242 15.2218,2.6342 15.0858,2.6342 L15.0858,2.6342 Z" />
        <path d="M3.0903,2.9482 L4.3823,2.9482 L4.3823,10.9502 C4.3823,11.7672 3.7193,12.4302 2.9033,12.4302 L2.9033,12.4302" />
      </g>
    </g>
  </g>
</svg>
