<?xml version="1.0" encoding="UTF-8"?>
<svg width="20px" height="20px" viewBox="0 0 20 20" version="1.1" xmlns="http://www.w3.org/2000/svg" xmlns:xlink="http://www.w3.org/1999/xlink">
    <!-- Generator: Sketch 51.3 (57544) - http://www.bohemiancoding.com/sketch -->
    <title>Painting</title>
    <desc>Created with Sketch.</desc>
    <defs></defs>
    <g id="Painting" stroke="none" stroke-width="1" fill="none" fill-rule="evenodd">
        <g id="Group-3" transform="translate(1.500000, 2.500000)"></g>
        <circle id="Oval-3" stroke="#394249" cx="8.5" cy="6.5" r="1"></circle>
        <circle id="Oval-3" stroke="#394249" cx="5" cy="8" r="1"></circle>
        <circle id="Oval-3" stroke="#394249" cx="5" cy="11" r="1"></circle>
        <path d="M11.105957,4.75378418 C8.65087965,2.6864073 5.1241417,3.16073489 3.37548828,6.32531738 C1.62683486,9.48989988 2.9204822,13.4715561 4.43713379,14.7160645 C5.95378538,15.9605728 8.98680709,15.6200066 8.94348145,14.7160645 C8.9001558,13.8121223 8.27097383,12.0545273 9.92713145,11.6311746 C11.5832891,11.207822 13.5610344,6.82116106 11.105957,4.75378418 Z" id="Path-5" stroke="#394249"></path>
        <rect id="Rectangle-5" fill="#394249" transform="translate(14.820441, 11.621172) rotate(8.000000) translate(-14.820441, -11.621172) " x="14.3204407" y="6.62117227" width="1" height="10"></rect>
        <path d="M16.2296497,3.21877191 C15.8732043,2.62758539 13.4812366,7.03310297 15.7298938,6.9972143 C17.978551,6.96132563 16.0665637,5.50026606 16.2296497,3.21877191 Z" id="Path-6" stroke="#394249" transform="translate(15.805402, 5.080803) rotate(8.000000) translate(-15.805402, -5.080803) "></path>
    </g>
</svg>